<svg width="24" height="27" viewBox="0 0 24 27" fill="none" xmlns="http://www.w3.org/2000/svg">
<path fill-rule="evenodd" clip-rule="evenodd" d="M0 19.8267V9.67603H24V19.908C24 24.0934 21.3655 26.6667 17.1504 26.6667H6.83644C2.66081 26.6667 0 24.04 0 19.8267ZM6.61252 16.5467C6.00659 16.5747 5.50604 16.0934 5.4797 15.4814C5.4797 14.868 5.9539 14.3614 6.55983 14.3334C7.15258 14.3334 7.63996 14.8014 7.65313 15.4C7.67948 16.0147 7.20527 16.5214 6.61252 16.5467ZM12.0263 16.5467C11.4204 16.5747 10.9199 16.0934 10.8935 15.4814C10.8935 14.868 11.3677 14.3614 11.9736 14.3334C12.5664 14.3334 13.0538 14.8014 13.067 15.4C13.0933 16.0147 12.6191 16.5214 12.0263 16.5467ZM17.4007 21.4534C16.7947 21.44 16.3074 20.9334 16.3074 20.32C16.2942 19.7067 16.7816 19.2014 17.3875 19.188H17.4007C18.0198 19.188 18.5203 19.6947 18.5203 20.32C18.5203 20.9467 18.0198 21.4534 17.4007 21.4534ZM10.8935 20.32C10.9199 20.9333 11.4204 21.4147 12.0263 21.3867C12.6191 21.3613 13.0933 20.8547 13.067 20.2413C13.0538 19.6413 12.5664 19.1733 11.9736 19.1733C11.3677 19.2013 10.8935 19.7067 10.8935 20.32ZM5.46651 20.32C5.49286 20.9333 5.99341 21.4147 6.59933 21.3867C7.19209 21.3613 7.66629 20.8547 7.63995 20.2413C7.62678 19.6413 7.1394 19.1733 6.54664 19.1733C5.94072 19.2013 5.46651 19.7067 5.46651 20.32ZM16.3205 15.468C16.3205 14.8547 16.7947 14.3614 17.4006 14.348C17.9934 14.348 18.4676 14.8267 18.494 15.4147C18.5071 16.028 18.0329 16.5347 17.4402 16.5467C16.8342 16.56 16.3337 16.0934 16.3205 15.4814V15.468Z" fill="white"/>
<path opacity="0.4" d="M0.00448608 9.67591C0.0216101 8.89324 0.0874718 7.33991 0.211292 6.83991C0.843564 4.02791 2.99066 2.24124 6.05981 1.98657H17.9413C20.9841 2.25457 23.1575 4.05324 23.7898 6.83991C23.9123 7.32657 23.9781 8.89191 23.9953 9.67591H0.00448608Z" fill="white"/>
<path d="M7.07314 6.12C7.65272 6.12 8.08741 5.68133 8.08741 5.09333V1.028C8.08741 0.44 7.65272 0 7.07314 0C6.49356 0 6.05887 0.44 6.05887 1.028V5.09333C6.05887 5.68133 6.49356 6.12 7.07314 6.12" fill="white"/>
<path d="M16.9266 6.12C17.493 6.12 17.9409 5.68133 17.9409 5.09333V1.028C17.9409 0.44 17.493 0 16.9266 0C16.347 0 15.9123 0.44 15.9123 1.028V5.09333C15.9123 5.68133 16.347 6.12 16.9266 6.12" fill="white"/>
</svg>
