<svg width="23" height="27" viewBox="0 0 23 27" fill="none" xmlns="http://www.w3.org/2000/svg">
<path fill-rule="evenodd" clip-rule="evenodd" d="M20.2761 9.06177C20.2761 10.7364 20.7187 11.7233 21.6927 12.8608C22.4308 13.6988 22.6667 14.7744 22.6667 15.9413C22.6667 17.1069 22.2837 18.2135 21.5164 19.1119C20.512 20.1889 19.0953 20.8764 17.6496 20.996C15.5545 21.1745 13.4583 21.3249 11.334 21.3249C9.2084 21.3249 7.1134 21.2351 5.01833 20.996C3.57128 20.8764 2.15469 20.1889 1.15156 19.1119C0.384293 18.2135 0 17.1069 0 15.9413C0 14.7744 0.2372 13.6988 0.973987 12.8608C1.97845 11.7233 2.39189 10.7364 2.39189 9.06177V8.49373C2.39189 6.25112 2.95111 4.78469 4.10267 3.34915C5.81475 1.2556 8.55913 0 11.2744 0H11.3936C14.1672 0 17.0003 1.31603 18.6833 3.49955C19.7752 4.90555 20.2761 6.3102 20.2761 8.49373V9.06177ZM7.43156 24.0811C7.43156 23.4097 8.04776 23.1021 8.61757 22.9705C9.28413 22.8296 13.3457 22.8296 14.0123 22.9705C14.5821 23.1021 15.1983 23.4097 15.1983 24.0811C15.1651 24.7203 14.7901 25.2871 14.272 25.6469C13.6001 26.1707 12.8117 26.5023 11.9875 26.6219C11.5316 26.6809 11.0837 26.6823 10.6437 26.6219C9.81813 26.5023 9.02973 26.1707 8.35917 25.6456C7.83971 25.2871 7.46469 24.7203 7.43156 24.0811Z" fill="white"/>
</svg>
