<svg width="27" height="27" viewBox="0 0 27 27" fill="none" xmlns="http://www.w3.org/2000/svg">
<path fill-rule="evenodd" clip-rule="evenodd" d="M7.10667 0H19.5467C24.08 0 26.6667 2.56 26.6667 7.10667V19.56C26.6667 24.08 24.0933 26.6667 19.56 26.6667H7.10667C2.56 26.6667 0 24.08 0 19.56V7.10667C0 2.56 2.56 0 7.10667 0ZM14.4267 14.44H18.2133C18.8267 14.4267 19.32 13.9333 19.32 13.32C19.32 12.7067 18.8267 12.2133 18.2133 12.2133H14.4267V8.45333C14.4267 7.84 13.9333 7.34667 13.32 7.34667C12.7067 7.34667 12.2133 7.84 12.2133 8.45333V12.2133H8.44C8.14667 12.2133 7.86667 12.3333 7.65333 12.5333C7.45333 12.7467 7.33333 13.0253 7.33333 13.32C7.33333 13.9333 7.82667 14.4267 8.44 14.44H12.2133V18.2133C12.2133 18.8267 12.7067 19.32 13.32 19.32C13.9333 19.32 14.4267 18.8267 14.4267 18.2133V14.44Z" fill="white"/>
</svg>
